<svg id="Capa_1" data-name="Capa 1" xmlns="http://www.w3.org/2000/svg" viewBox="0 0 304 304"><defs><style>.cls-1{fill:#5c6476;}.cls-2,.cls-3{fill:#ad1e24;}.cls-3{opacity:0.5;}</style></defs><path class="cls-1" d="M262.68,34.34q-86.05,0-172.11,0H83.41C89.57,50,89.57,50,104.78,50q79.86,0,159.73.06c14.82,0,24.43,10.8,23.13,25.39-.33,3.61-.55,7.24-.57,10.86-.29,39.66,1.62,79.33,0,119-.61,15.3-8.7,24-23.82,24q-108.2.09-216.4.05c-15.32,0-23.7-8.48-23.71-23.82,0-25.41-.21-50.83.19-76.24.11-7.11-1-11.54-8.86-13.6s-7.78-2.83-7.81,5.19c-.11,28.8-.29,57.61,0,86.41.19,22,16.47,37.79,38.42,37.8q108.93,0,217.86,0c25.14,0,40.68-15.61,40.72-40.81q.09-64.28,0-128.53C303.66,49.94,288.24,34.35,262.68,34.34Z"/><path class="cls-2" d="M218.08,86.13c0-10.29-2.65-12.53-12.74-10.51-20.62,4.12-41.19,8.47-61.83,12.52-6.82,1.34-9.8,4.87-9.79,12,0,18.14-.57,36.28-.59,54.42,0,5-1.34,7-6.58,6.65a29.73,29.73,0,0,0-10.7,1.45c-8,2.55-14.34,7.43-16.3,16-1.78,7.74-.49,15.17,6,20.49,9,7.34,19.18,7.59,29.43,3.49,9.87-4,14-11.74,13.8-22.42-.35-17.18-.16-34.37-.19-51.56,0-2.91-.31-6,3.68-6.78q22.75-4.52,45.5-9.06c3.19-.63,4.86.41,5.19,4a175.35,175.35,0,0,1,.32,21c-.15,5.43-1.82,7.87-7.73,7.18-6.47-.76-12.48,1.52-17.83,5.06-11.77,7.77-12.65,24.13-1.64,32.86,8.69,6.89,18.49,6.66,28.13,2.52,9.26-4,14.22-11.19,14.09-21.65-.16-13.07,0-26.14,0-39.21h-.17C218.09,111.78,218.12,99,218.08,86.13Z"/><path class="cls-1" d="M216.9,259.51q-62,.3-124,.09c-5.37,0-9.11,1.08-8.93,7.41.17,5.72,2.22,8.61,8.78,8.49q7.8-.15,15.59-.19c15.59-.09,31.18.05,46.77.05,15.41,0,30.82-.06,46.23,0q7.71,0,15.41.08c5.51,0,9.65-.76,9.79-7.49S223.11,259.48,216.9,259.51Z"/><circle class="cls-3" cx="34.24" cy="62.43" r="33.93"/><circle class="cls-2" cx="34.84" cy="61.63" r="26.44"/></svg>